<svg width="160" height="46" viewBox="0 0 160 46" fill="none" xmlns="http://www.w3.org/2000/svg">
<g clip-path="url(#clip0_1_292)">
<path d="M83.1065 14.7423H80.4746V3.35693H90.0214V14.7423H87.3894V5.66011H83.1065V14.7423Z" fill="white"/>
<path d="M101.203 3.35693V5.66011H95.334V7.70243H99.5356V9.95694H95.334V12.4392H101.203V14.7423H92.7019V3.35693H101.203Z" fill="white"/>
<path d="M102.935 14.7423V3.35693H109.294C111.632 3.35693 112.417 5.02302 112.417 7.35908C112.417 9.41718 111.435 11.1978 109.31 11.1978H105.567V14.7423H102.935ZM108.379 9.02517C109.065 9.02517 109.523 8.55132 109.523 7.35908C109.523 6.11751 109.131 5.61118 108.412 5.61118H105.567V9.02517H108.379Z" fill="white"/>
<path d="M123.631 11.6713C123.631 13.9584 122.471 14.7423 120.623 14.7423H114.117V3.35693H120.574C122.847 3.35693 123.418 4.30423 123.418 6.08502C123.418 7.66915 123.026 8.58408 120.983 8.74746C123.157 8.8456 123.631 9.89063 123.631 11.6713ZM116.75 7.7511H119.856C120.363 7.7511 120.591 7.45722 120.591 6.67278C120.591 5.88835 120.363 5.595 119.856 5.595H116.75V7.7511ZM119.937 12.5044C120.493 12.5044 120.771 12.129 120.771 11.2465C120.771 10.3158 120.461 9.89103 119.872 9.89103H116.75V12.5044H119.937Z" fill="white"/>
<path d="M128.568 3.35693V7.03231H132.393C134.534 7.03231 135.466 8.76364 135.466 10.8711C135.466 13.2559 134.6 14.7423 132.442 14.7423H125.936V3.35693H128.568ZM131.543 12.5044C132.246 12.5044 132.589 12.0137 132.589 10.8711C132.589 9.69475 132.164 9.2538 131.51 9.2538H128.568V12.5044H131.543ZM139.095 3.35693V14.7423H136.447V3.35693H139.095Z" fill="white"/>
<path d="M152.107 14.7425H149.508V7.24489C148.167 9.77683 146.697 12.3577 145.225 14.7425H141.775V3.35705H144.358V11.1652C145.928 8.60038 147.48 5.95425 148.886 3.35705H152.107V14.7425ZM145.978 0.514648C145.978 1.21752 146.304 1.36433 146.958 1.36433C147.596 1.36433 147.939 1.21713 147.939 0.514648H149.476C149.476 2.11575 148.544 2.85072 146.893 2.85072C145.291 2.85072 144.327 2.11575 144.327 0.514648H145.978Z" fill="white"/>
<path d="M80.4746 29.9825V18.5977H86.8337C89.1712 18.5977 89.956 20.2637 89.956 22.5998C89.956 24.6578 88.9746 26.4386 86.85 26.4386H83.1065V29.9825H80.4746ZM85.9182 24.2654C86.6049 24.2654 87.0625 23.7914 87.0625 22.5993C87.0625 21.3576 86.6703 20.8514 85.9509 20.8514H83.1065V24.2654H85.9182Z" fill="white"/>
<path d="M98.0805 18.5977H101.138C99.65 22.3874 97.3284 26.9456 95.4977 29.9826H92.1465C92.7352 29.1987 93.5359 27.9733 94.0592 27.0424C93.2581 24.9188 91.3619 20.8514 89.9888 18.5972H93.1602C93.9938 20.0836 95.0073 22.2398 95.7265 24.1348C96.6258 22.2731 97.541 20.1495 98.0805 18.5977Z" fill="white"/>
<path d="M106.99 18.3198C108.052 18.3198 109.426 18.4832 110.292 18.728L109.785 21.0479C109.23 20.8518 108.265 20.7375 107.546 20.7375C105.257 20.7375 104.407 21.0641 104.407 24.2167C104.407 27.353 105.257 27.7778 107.546 27.7778C108.265 27.7778 109.23 27.6473 109.785 27.4673L110.292 29.8359C109.409 30.0645 108.053 30.2116 106.99 30.2116C103.328 30.2116 101.595 28.8232 101.595 24.1842C101.595 19.5286 103.329 18.3198 106.99 18.3198Z" fill="white"/>
<path d="M116.602 18.3198C117.664 18.3198 119.037 18.4832 119.904 18.728L119.397 21.0479C118.842 20.8518 117.877 20.7375 117.158 20.7375C114.869 20.7375 114.019 21.0641 114.019 24.2167C114.019 27.353 114.869 27.7778 117.158 27.7778C117.877 27.7778 118.842 27.6473 119.397 27.4673L119.904 29.8359C119.021 30.0645 117.665 30.2116 116.602 30.2116C112.94 30.2116 111.207 28.8232 111.207 24.1842C111.207 19.5286 112.94 18.3198 116.602 18.3198Z" fill="white"/>
<path d="M128.322 29.9825C126.868 25.8013 125.788 24.8702 123.99 24.6745V29.9825H121.358V18.5977H123.99V24.0534C124.905 23.0408 126.557 20.9502 128.011 18.5977H131.15C129.253 21.5381 127.93 23.2366 127.423 23.7105C128.633 24.1678 129.794 25.0336 131.445 29.9833L128.322 29.9825Z" fill="white"/>
<path d="M142.921 29.9825H140.322V22.4855C138.981 25.0173 137.51 27.5983 136.038 29.9831H132.59V18.5977H135.173V26.4057C136.742 23.841 138.295 21.1949 139.701 18.5977H142.921V29.9825Z" fill="white"/>
<path d="M155.931 29.9826H153.332V22.4856C151.991 25.0174 150.521 27.5984 149.049 29.9832H145.599V18.5978H148.182V26.4058C149.752 23.8411 151.304 21.195 152.71 18.5978H155.93L155.931 29.9826ZM149.802 15.7554C149.802 16.4582 150.128 16.6049 150.782 16.6049C151.42 16.6049 151.763 16.4578 151.763 15.7554H153.3C153.3 17.3565 152.368 18.0914 150.717 18.0914C149.115 18.0914 148.151 17.3565 148.151 15.7554H149.802Z" fill="white"/>
<path d="M83.1065 45.2228H80.4746V33.8374H90.0214V45.2228H87.3894V36.1407H83.1065V45.2228Z" fill="white"/>
<path d="M92.7019 45.2228V33.8374H99.0611C101.398 33.8374 102.183 35.5035 102.183 37.8396C102.183 39.8975 101.202 41.6783 99.0773 41.6783H95.3338V45.2228H92.7019ZM98.1455 39.5056C98.8323 39.5056 99.2898 39.0317 99.2898 37.8396C99.2898 36.5979 98.8976 36.0916 98.1784 36.0916H95.3338V39.5056H98.1455Z" fill="white"/>
<path d="M114.429 39.4079C114.429 44.0963 112.532 45.4518 108.887 45.4518C105.226 45.4518 103.346 44.0963 103.346 39.4079C103.346 34.7851 105.226 33.5601 108.887 33.5601C112.532 33.5601 114.429 34.7851 114.429 39.4079ZM111.617 39.4406C111.617 36.3373 111.192 35.9777 108.887 35.9777C106.582 35.9777 106.157 36.3368 106.157 39.4406C106.157 42.5932 106.582 43.0509 108.887 43.0509C111.192 43.0509 111.617 42.5932 111.617 39.4406Z" fill="white"/>
<path d="M119.038 45.2228V36.1407H115.229V33.8374H125.478V36.1407H121.686V45.2228H119.038Z" fill="white"/>
<path d="M135.336 33.8374V36.1407H129.468V38.183H133.669V40.4375H129.468V42.9203H135.337V45.2236H126.836V33.8374H135.336Z" fill="white"/>
<path d="M147.4 45.2228H144.801V37.7252C143.46 40.2571 141.989 42.8381 140.517 45.2228H137.068V33.8374H139.651V41.6454C141.22 39.0807 142.773 36.4346 144.179 33.8374H147.399L147.4 45.2228Z" fill="white"/>
<path d="M152.713 45.2228H150.081V33.8374H152.713V37.9862H156.997V33.8374H159.628V45.2228H156.997V40.4204H152.713V45.2228Z" fill="white"/>
<path d="M0.987061 45.5065H10.9172V10.3166H19.437V1.08887H0.987061V45.5065Z" fill="white"/>
<path d="M20.6504 1.09033V45.6258H30.5806V40.3873C34.3748 40.3797 37.6177 39.6123 40.3093 38.0584C41.5514 37.3434 42.6877 36.4586 43.6854 35.4295C48.0574 30.9279 50.2434 23.3514 50.2433 12.7003V1.09033H20.6504ZM37.477 27.3413C35.5723 29.8787 33.2736 31.1514 30.5808 31.1592V10.318H40.3093V18.1097C40.1268 21.9886 39.1827 25.0657 37.477 27.3413Z" fill="white"/>
<path d="M40.7109 39.6428C40.5783 39.7188 40.4449 39.791 40.3118 39.8631V45.5084H50.242V24.7812C48.649 31.9575 45.472 36.9113 40.7109 39.6428Z" fill="white"/>
<path d="M51.4543 1.09082V10.3185H59.978V45.5086H69.9044V1.09082H51.4543Z" fill="white"/>
</g>
<defs>
<clipPath id="clip0_1_292">
<rect width="160" height="46" fill="white"/>
</clipPath>
</defs>
</svg>
